<svg width="126" height="286" viewBox="0 0 126 286" fill="none" xmlns="http://www.w3.org/2000/svg">
<path d="M61.8018 282.313L2.79886 224.294C2.60768 224.106 2.5 223.849 2.5 223.581V63.4142C2.5 63.149 2.60536 62.8946 2.79289 62.7071L62.29 3.21005C62.6816 2.81838 63.3171 2.81969 63.7071 3.21299L122.71 62.7076C122.896 62.8949 123 63.148 123 63.4118V122.967C123 123.3 122.834 123.611 122.558 123.797L95.2035 142.191C94.6224 142.581 94.6125 143.433 95.1843 143.837L122.577 163.201C122.842 163.389 123 163.693 123 164.018V223.578C123 223.848 122.891 224.106 122.698 224.294L63.2011 282.316C62.8115 282.696 62.1897 282.695 61.8018 282.313Z" stroke="#E23CED" stroke-width="5"/>
<path d="M72 63H54C53.4477 63 53 63.4477 53 64V122C53 122.552 53.4477 123 54 123H72C72.5523 123 73 122.552 73 122V64C73 63.4477 72.5523 63 72 63Z" stroke="#E23CED" stroke-width="5"/>
<path d="M54 163.5H72C72.5523 163.5 73 163.948 73 164.5V222C73 222.552 72.5523 223 72 223H54C53.4477 223 53 222.552 53 222V164.5C53 163.948 53.4477 163.5 54 163.5Z" stroke="#E23CED" stroke-width="5"/>
</svg>
