<svg width="295" height="295" viewBox="0 0 295 295" fill="none" xmlns="http://www.w3.org/2000/svg">
<path d="M146.073 287.541L69.3945 229.195C69.1459 229.006 69 228.711 69 228.399V68.0985C69 67.789 69.1433 67.497 69.388 67.3076L146.709 7.47553C147.071 7.19577 147.576 7.19679 147.936 7.478L224.615 67.3076C224.858 67.4971 225 67.7879 225 68.096V127.609C225 127.982 224.792 128.324 224.462 128.496L189.119 146.885C188.409 147.255 188.399 148.266 189.101 148.65L224.48 168.002C224.801 168.178 225 168.514 225 168.88V228.397C225 228.71 224.853 229.006 224.602 229.195L147.281 287.544C146.924 287.813 146.43 287.812 146.073 287.541Z" stroke="#E23CED" stroke-width="13"/>
<path d="M148 127V69C148 68.4477 147.552 68 147 68C146.448 68 146 68.4477 146 69V127C146 127.552 146.448 128 147 128C147.552 128 148 127.552 148 127Z" stroke="#E23CED" stroke-width="13"/>
<path d="M146 227V170C146 169.448 146.448 169 147 169C147.552 169 148 169.448 148 170V227C148 227.552 147.552 228 147 228C146.448 228 146 227.552 146 227Z" stroke="#E23CED" stroke-width="13"/>
</svg>
