<svg width="369" height="369" viewBox="0 0 369 369" fill="none" xmlns="http://www.w3.org/2000/svg">
<g clip-path="url(#clip0)">
<rect width="369" height="369" rx="184.5" fill="#120148"/>
<path d="M183.623 304.077L114.911 254.318C114.651 254.13 114.498 253.829 114.498 253.508V116.77C114.498 116.452 114.649 116.153 114.905 115.965L184.193 64.9385C184.546 64.6779 185.029 64.6789 185.382 64.9409L254.094 115.965C254.348 116.153 254.498 116.451 254.498 116.768V167.409C254.498 167.789 254.282 168.136 253.941 168.305L222.569 183.84C221.836 184.203 221.825 185.245 222.551 185.623L253.959 201.974C254.29 202.146 254.498 202.488 254.498 202.861V253.506C254.498 253.828 254.342 254.13 254.081 254.318L184.793 304.079C184.443 304.331 183.972 304.33 183.623 304.077Z" stroke="#E23CED" stroke-width="13"/>
<path d="M185.395 166.948V117.497C185.395 117.001 184.993 116.6 184.498 116.6C184.002 116.6 183.6 117.001 183.6 117.497V166.948C183.6 167.443 184.002 167.845 184.498 167.845C184.993 167.845 185.395 167.443 185.395 166.948Z" stroke="#E23CED" stroke-width="13"/>
<path d="M183.6 252.357V203.761C183.6 203.265 184.002 202.863 184.498 202.863C184.993 202.863 185.395 203.265 185.395 203.761V252.357C185.395 252.853 184.993 253.255 184.498 253.255C184.002 253.255 183.6 252.853 183.6 252.357Z" stroke="#E23CED" stroke-width="13"/>
<path d="M22.9893 183.691L44.731 167.926C44.8095 167.869 44.9157 167.869 44.994 167.926C45.1166 168.016 45.1159 168.199 44.9925 168.288L23.5721 183.688C23.0171 184.087 23.0171 184.913 23.5721 185.312L44.9925 200.712C45.1159 200.801 45.1166 200.984 44.994 201.074C44.9157 201.131 44.8095 201.132 44.731 201.075L22.9893 185.31C22.4386 184.91 22.4386 184.09 22.9893 183.691Z" stroke="#E23CED" stroke-width="13"/>
<path d="M346.011 183.691L324.269 167.926C324.191 167.869 324.084 167.869 324.006 167.926C323.883 168.016 323.884 168.199 324.007 168.288L345.428 183.688C345.983 184.087 345.983 184.913 345.428 185.312L324.007 200.712C323.884 200.801 323.883 200.984 324.006 201.074C324.084 201.131 324.191 201.132 324.269 201.075L346.011 185.31C346.561 184.91 346.561 184.09 346.011 183.691Z" stroke="#E23CED" stroke-width="13"/>
</g>
<defs>
<clipPath id="clip0">
<rect width="369" height="369" rx="184.5" fill="white"/>
</clipPath>
</defs>
</svg>
