<svg width="275" height="275" viewBox="0 0 275 275" fill="none" xmlns="http://www.w3.org/2000/svg">
<rect width="275" height="275" rx="137.5" fill="#120148"/>
<path d="M136.098 266.926L65.3945 213.126C65.1459 212.937 65 212.643 65 212.33V64.4363C65 64.1269 65.1433 63.8348 65.388 63.6455L136.684 8.47553C137.046 8.19577 137.551 8.19679 137.911 8.478L208.615 63.6454C208.858 63.8349 209 64.1258 209 64.4338V119.284C209 119.657 208.792 119.999 208.462 120.172L176.007 137.058C175.297 137.428 175.287 138.439 175.989 138.823L208.48 156.596C208.801 156.771 209 157.108 209 157.473V212.328C209 212.642 208.853 212.937 208.602 213.126L137.306 266.928C136.948 267.198 136.455 267.197 136.098 266.926Z" stroke="#E23CED" stroke-width="13"/>
<path d="M137.923 118.769V65.2307C137.923 64.7209 137.51 64.3076 137 64.3076C136.49 64.3076 136.077 64.7209 136.077 65.2307V118.769C136.077 119.279 136.49 119.692 137 119.692C137.51 119.692 137.923 119.279 137.923 118.769Z" stroke="#E23CED" stroke-width="13"/>
<path d="M136.077 211.077V158.462C136.077 157.952 136.49 157.539 137 157.539C137.51 157.539 137.923 157.952 137.923 158.462V211.077C137.923 211.587 137.51 212 137 212C136.49 212 136.077 211.587 136.077 211.077Z" stroke="#E23CED" stroke-width="13"/>
</svg>
