<svg width="170" height="295" viewBox="0 0 170 295" fill="none" xmlns="http://www.w3.org/2000/svg">
<rect x="26" y="87" width="128" height="128" rx="13" fill="#120148"/>
<path d="M89.1495 204.001L60.1492 181.935C60.0552 181.863 60 181.751 60 181.633V121.007C60 120.89 60.0542 120.78 60.1467 120.708L89.39 98.0791C89.5267 97.9733 89.7178 97.9737 89.8541 98.08L118.854 120.708C118.946 120.78 119 120.89 119 121.006V143.514C119 143.655 118.921 143.785 118.797 143.85L105.43 150.804C105.161 150.944 105.157 151.327 105.423 151.472L118.803 158.791C118.925 158.858 119 158.985 119 159.123V181.633C119 181.751 118.944 181.863 118.849 181.935L89.6063 204.002C89.4711 204.104 89.2844 204.104 89.1495 204.001Z" stroke="#E23CED" stroke-width="4"/>
<path d="M89.8785 143.284V121.348C89.8785 121.139 89.7092 120.97 89.5003 120.97C89.2914 120.97 89.1221 121.139 89.1221 121.348V143.284C89.1221 143.493 89.2914 143.662 89.5003 143.662C89.7092 143.662 89.8785 143.493 89.8785 143.284Z" stroke="#E23CED" stroke-width="4"/>
<path d="M89.1221 181.104V159.547C89.1221 159.338 89.2914 159.168 89.5003 159.168C89.7092 159.168 89.8785 159.338 89.8785 159.547V181.104C89.8785 181.313 89.7092 181.483 89.5003 181.483C89.2914 181.483 89.1221 181.313 89.1221 181.104Z" stroke="#E23CED" stroke-width="4"/>
</svg>
